<?xml version="1.0" encoding="utf-8"?>
<!-- Generator: Adobe Illustrator 14.0.0, SVG Export Plug-In . SVG Version: 6.00 Build 43363)  -->
<!DOCTYPE svg PUBLIC "-//W3C//DTD SVG 1.1//EN" "http://www.w3.org/Graphics/SVG/1.1/DTD/svg11.dtd">
<svg version="1.1" id="Layer_1" xmlns="http://www.w3.org/2000/svg" xmlns:xlink="http://www.w3.org/1999/xlink" x="0px" y="0px"
	 width="800px" height="600px" viewBox="0 0 800 600" enable-background="new 0 0 800 600" xml:space="preserve">
<g>
	<path fill-rule="evenodd" clip-rule="evenodd" fill="#336688" d="M441.796,73.505C548.497,93.574,629.242,187.19,629.242,299.719
		c0,21.37-2.972,42.034-8.42,61.667l61.244,29.913c9.33-28.857,14.429-59.617,14.429-91.58c0-149.764-110.68-273.631-254.699-294.39
		V73.505z"/>
	<path fill-rule="evenodd" clip-rule="evenodd" fill="#336688" d="M585.535,434.621c-41.837,57.748-109.776,95.346-186.54,95.346
		c-72.77,0-137.609-33.794-179.804-86.502l-61.568,30.07c54.025,74.891,141.972,123.685,241.372,123.685
		c103.359,0,194.372-52.727,247.695-132.729L585.535,434.621z"/>
	<path fill-rule="evenodd" clip-rule="evenodd" fill="#336688" d="M180.374,371.954c-7.504-22.727-11.625-46.993-11.625-72.235
		c0-114.038,82.924-208.655,191.753-226.981V4.78C214.395,23.672,101.496,148.47,101.496,299.719
		c0,35.831,6.34,70.178,17.951,101.99L180.374,371.954z"/>
</g>
<path fill-rule="evenodd" clip-rule="evenodd" fill="#FBB03B" d="M506.176,182.988c-28.822,43.233,0,0-28.822,43.233
	C415,169.486,309.69,216.596,308.021,294.674c-1.765,82.696,98.619,134.806,165.729,72.056c36.027,39.631,0,0,36.027,39.631
	c-90.099,81.715-237.438,23.708-252.193-82.864C237.934,181.594,392.807,97.492,506.176,182.988z"/>
</svg>